<svg  viewBox="0 0 24 22">
	<path d="M23.4921 20.7549H15.0647V12.7096H15.8843C16.6285 12.7096 17.2319 13.3181 17.2269 14.0623C17.2269 14.0673 17.2269 14.0673 17.2269 14.0723V15.4651C17.2269 16.9384 18.4186 18.1301 19.8919 18.1301C21.3652 18.1301 22.5569 16.9384 22.5569 15.4651V7.5104C22.5569 6.68576 22.2502 5.89129 21.687 5.28287L17.7549 0.80267L17.0006 1.4664L20.0478 4.94095C18.9466 5.12699 18.2024 6.16785 18.3884 7.26904C18.5493 8.24453 19.3941 8.95855 20.3847 8.95855C20.802 8.95352 21.2093 8.82781 21.5512 8.58645V15.4651C21.5512 16.3803 20.807 17.1245 19.8919 17.1245C18.9767 17.1245 18.2326 16.3803 18.2326 15.4651V14.0723C18.2376 12.77 17.1867 11.709 15.8894 11.704H15.8843H15.0647V2.3363C15.0647 1.18985 14.1395 0.239502 12.9931 0.239502H3.65053C2.50409 0.239502 1.58894 1.19488 1.58894 2.3363V20.7549H0.502828C0.226273 20.7549 0 20.9812 0 21.2577C0 21.5343 0.226273 21.7606 0.502828 21.7606H23.4972C23.7737 21.7606 24 21.5343 24 21.2577C24 20.9812 23.7737 20.7549 23.4921 20.7549ZM20.3847 7.94786C19.8215 7.94786 19.369 7.49029 19.369 6.93215C19.369 6.37401 19.8265 5.91644 20.3847 5.91644C20.9478 5.91644 21.4004 6.37401 21.4004 6.93215C21.4004 7.49029 20.9428 7.94786 20.3847 7.94786ZM14.0591 20.7549H2.59459V2.3363C2.59459 1.74296 3.0572 1.24516 3.65053 1.24516H12.9931C13.5864 1.24516 14.0591 1.74799 14.0591 2.3363V20.7549Z" />
</svg>


