<svg viewBox="0 0 21 29">
<path d="M10.4987 0C5.16861 0 0.832031 4.33658 0.832031 9.66669C0.832031 11.2668 1.23208 12.8533 1.9926 14.2605L9.97009 28.6885C10.0763 28.8808 10.2787 29 10.4987 29C10.7188 29 10.9211 28.8808 11.0273 28.6885L19.0078 14.2557C19.7654 12.8533 20.1654 11.2667 20.1654 9.66663C20.1654 4.33658 15.8288 0 10.4987 0ZM10.4987 14.5C7.83366 14.5 5.6654 12.3317 5.6654 9.66669C5.6654 7.00163 7.83366 4.83337 10.4987 4.83337C13.1638 4.83337 15.332 7.00163 15.332 9.66669C15.332 12.3317 13.1638 14.5 10.4987 14.5Z" />
</svg>
