<svg viewBox="0 0 24 24" >
<g clip-path="url(#clip0_360_5002)">
<path d="M8.24609 11.25C9.90031 11.25 11.2461 10.1565 11.2461 8.81248C11.2461 8.71302 11.2066 8.61764 11.1363 8.54732C11.0659 8.47699 10.9706 8.43748 10.8711 8.43748C10.7716 8.43748 10.6763 8.47699 10.6059 8.54732C10.5356 8.61764 10.4961 8.71302 10.4961 8.81248C10.4961 9.64714 9.6838 10.3418 8.62109 10.4761V9.28592C8.66076 9.26613 8.69882 9.24327 8.73491 9.21753L9.37133 8.76336C9.48812 8.6786 9.58303 8.56723 9.64819 8.43849C9.71336 8.30974 9.7469 8.16731 9.74605 8.02301C9.74605 7.52792 9.35867 7.12512 8.88252 7.12512H7.60962C7.13347 7.12512 6.74609 7.52792 6.74609 8.02301C6.74524 8.16731 6.77878 8.30974 6.84395 8.43849C6.90911 8.56723 7.00402 8.6786 7.12081 8.76336L7.75723 9.21753C7.79333 9.24328 7.8314 9.26615 7.87109 9.28592V10.4761C6.80839 10.3418 5.99609 9.64714 5.99609 8.81248C5.99609 8.71302 5.95658 8.61764 5.88626 8.54732C5.81593 8.47699 5.72055 8.43748 5.62109 8.43748C5.52164 8.43748 5.42625 8.47699 5.35593 8.54732C5.2856 8.61764 5.24609 8.71302 5.24609 8.81248C5.24609 10.1565 6.59187 11.25 8.24609 11.25ZM7.55656 8.15276C7.53708 8.13731 7.52148 8.11752 7.511 8.09497C7.50051 8.07241 7.49544 8.04773 7.49619 8.02287C7.49619 7.94272 7.54822 7.87498 7.60972 7.87498H8.88266C8.9442 7.87498 8.99619 7.94272 8.99619 8.02287C8.99692 8.04773 8.99184 8.07242 8.98135 8.09497C8.97086 8.11752 8.95525 8.13731 8.93577 8.15276L8.29934 8.60689C8.2841 8.61863 8.2654 8.625 8.24616 8.625C8.22692 8.625 8.20823 8.61863 8.19298 8.60689L7.55656 8.15276Z" />
<path d="M10.4961 7.125C10.7032 7.125 10.8711 6.95711 10.8711 6.75C10.8711 6.54289 10.7032 6.375 10.4961 6.375C10.289 6.375 10.1211 6.54289 10.1211 6.75C10.1211 6.95711 10.289 7.125 10.4961 7.125Z" />
<path d="M5.99609 7.125C6.2032 7.125 6.37109 6.95711 6.37109 6.75C6.37109 6.54289 6.2032 6.375 5.99609 6.375C5.78899 6.375 5.62109 6.54289 5.62109 6.75C5.62109 6.95711 5.78899 7.125 5.99609 7.125Z" />
<path d="M18 14.625C18.2967 14.625 18.5867 14.537 18.8334 14.3722C19.08 14.2074 19.2723 13.9731 19.3858 13.699C19.4994 13.4249 19.5291 13.1233 19.4712 12.8324C19.4133 12.5414 19.2705 12.2741 19.0607 12.0643C18.8509 11.8546 18.5836 11.7117 18.2926 11.6538C18.0017 11.5959 17.7001 11.6256 17.426 11.7392C17.1519 11.8527 16.9176 12.045 16.7528 12.2916C16.588 12.5383 16.5 12.8283 16.5 13.125C16.5004 13.5227 16.6586 13.904 16.9398 14.1852C17.221 14.4664 17.6023 14.6246 18 14.625ZM18 12.375C18.1483 12.375 18.2933 12.419 18.4167 12.5014C18.54 12.5838 18.6362 12.7009 18.6929 12.838C18.7497 12.975 18.7645 13.1258 18.7356 13.2713C18.7067 13.4168 18.6352 13.5505 18.5303 13.6553C18.4255 13.7602 18.2918 13.8317 18.1463 13.8606C18.0008 13.8895 17.85 13.8747 17.713 13.8179C17.5759 13.7612 17.4588 13.665 17.3764 13.5417C17.294 13.4184 17.25 13.2733 17.25 13.125C17.2502 12.9262 17.3293 12.7355 17.4699 12.5949C17.6105 12.4543 17.8012 12.3752 18 12.375Z" />
<path d="M23.25 15.375H21V10.5C21 10.4231 20.9763 10.348 20.932 10.2851L18.307 6.53508C18.2724 6.48568 18.2264 6.44535 18.173 6.4175C18.1195 6.38966 18.0601 6.37512 17.9998 6.37512C17.9395 6.37512 17.8801 6.38966 17.8266 6.4175C17.7731 6.44535 17.7271 6.48568 17.6926 6.53508L15.0676 10.2851C15.0234 10.348 14.9998 10.4231 15 10.5V12.8467C14.4864 12.1563 13.8013 11.5835 12.9554 11.1417C13.7906 10.1599 14.2457 8.88426 14.2457 7.5C14.2477 6.88834 14.1549 6.28007 13.9707 5.69681C14.336 5.50401 14.6506 5.22775 14.889 4.89048C15.1274 4.55321 15.2828 4.16445 15.3426 3.7558C15.4025 3.34715 15.3651 2.93014 15.2334 2.53867C15.1018 2.1472 14.8796 1.79231 14.585 1.50286C14.2904 1.21341 13.9316 0.997568 13.5379 0.87287C13.1442 0.748172 12.7266 0.71814 12.319 0.785217C11.9115 0.852294 11.5256 1.01459 11.1926 1.2589C10.8596 1.50322 10.5889 1.82266 10.4026 2.19126C9.70408 1.97604 8.97665 1.86937 8.24574 1.875C7.51488 1.86937 6.78749 1.97605 6.08902 2.19131C5.90272 1.8227 5.63207 1.50326 5.29908 1.25894C4.96608 1.01462 4.58013 0.852321 4.1726 0.785239C3.76507 0.718157 3.34747 0.748183 2.95373 0.872876C2.55999 0.99757 2.20123 1.21341 1.90661 1.50286C1.61199 1.7923 1.38982 2.14718 1.25817 2.53865C1.12652 2.93012 1.0891 3.34713 1.14895 3.75578C1.2088 4.16443 1.36424 4.5532 1.60262 4.89047C1.841 5.22774 2.1556 5.50401 2.52085 5.69681C2.33661 6.28007 2.2438 6.88834 2.24574 7.5C2.24574 8.88426 2.70108 10.16 3.53616 11.1417C1.71047 12.0952 0.634037 13.6591 0.413209 15.6951C0.41274 15.6997 0.412271 15.7044 0.411943 15.7091L0.375896 16.2239C0.374701 16.2408 0.374701 16.2578 0.375896 16.2747C0.40588 16.7137 0.563634 17.1343 0.829717 17.4846C1.0958 17.835 1.45859 18.0999 1.87337 18.2467C1.62595 18.7537 1.4982 19.3108 1.49996 19.875C1.49996 21.7359 2.84574 23.25 4.49996 23.25C5.39058 23.25 6.19135 22.8107 6.74129 22.1151C7.20403 22.3676 7.72277 22.5 8.24996 22.5C8.77714 22.5 9.29589 22.3676 9.75863 22.1151C10.3086 22.8107 11.1093 23.25 12 23.25C13.1754 23.25 14.1945 22.4852 14.6863 21.375H23.25C23.3494 21.375 23.4448 21.3355 23.5151 21.2652C23.5854 21.1948 23.625 21.0995 23.625 21V15.75C23.625 15.6505 23.5854 15.5552 23.5151 15.4848C23.4448 15.4145 23.3494 15.375 23.25 15.375ZM18 7.40391L19.9047 10.125H16.0952L18 7.40391ZM15.75 10.875H20.25V15.375H16.0351C15.976 14.9918 15.8805 14.6151 15.75 14.25V10.875ZM14.6253 18.244C14.9786 18.1172 15.2949 17.9045 15.5456 17.625H16.125V19.125H14.9243C14.863 18.8197 14.7625 18.5236 14.6253 18.244ZM15.3318 15.769L15.3656 16.2496C15.3386 16.5671 15.2115 16.8677 15.0025 17.1082C14.7936 17.3486 14.5136 17.5165 14.2031 17.5875C13.733 17.0149 13.0893 16.626 12.367 16.5263C12.2987 15.0011 11.7846 13.5937 10.9446 12.6084C11.4742 12.3846 11.9653 12.079 12.3999 11.7026C14.1177 12.5254 15.1298 13.9262 15.3318 15.7687V15.769ZM12.7457 1.5C13.1578 1.49987 13.5584 1.63546 13.8856 1.88581C14.2129 2.13616 14.4485 2.48734 14.5562 2.88505C14.6639 3.28276 14.6375 3.70486 14.4813 4.08611C14.325 4.46736 14.0475 4.78651 13.6917 4.99425C13.4299 4.4457 13.0746 3.94694 12.6417 3.52031C12.195 3.08215 11.6758 2.7246 11.1071 2.46347C11.2699 2.1717 11.5076 1.92862 11.7956 1.75927C12.0837 1.58991 12.4116 1.50042 12.7457 1.5ZM1.87074 3.375C1.87063 2.9596 2.00847 2.55592 2.26261 2.22734C2.51676 1.89876 2.87283 1.66388 3.27492 1.55957C3.67701 1.45526 4.10236 1.48743 4.48419 1.65103C4.86601 1.81463 5.1827 2.1004 5.38454 2.46347C4.81588 2.72457 4.2967 3.08213 3.84999 3.52031C3.41706 3.94691 3.06174 4.44566 2.79999 4.9942C2.51745 4.82867 2.28307 4.59217 2.12007 4.30816C1.95708 4.02414 1.87113 3.70246 1.87074 3.375ZM4.37588 4.05506C5.32726 3.11953 6.66558 2.625 8.24574 2.625C9.8259 2.625 11.1642 3.11953 12.1156 4.05511C13.0056 4.93026 13.4957 6.15366 13.4957 7.5C13.4957 8.84634 13.0056 10.0697 12.1156 10.9449C11.1642 11.8805 9.82604 12.375 8.24574 12.375C6.66544 12.375 5.32726 11.8805 4.37588 10.9449C3.48587 10.0697 2.99574 8.84634 2.99574 7.5C2.99574 6.15366 3.48587 4.93026 4.37588 4.05506ZM1.12594 16.2495L1.1596 15.7689C1.36168 13.9261 2.37366 12.5254 4.09149 11.7024C4.52802 12.0805 5.02152 12.3871 5.55376 12.6112C4.71624 13.5967 4.20155 15.0082 4.13288 16.5262C3.40993 16.6259 2.76558 17.0156 2.29547 17.5889C1.9834 17.5191 1.70173 17.3516 1.49139 17.1107C1.28106 16.8699 1.15304 16.5682 1.12594 16.2495ZM4.49996 22.5C3.25927 22.5 2.24996 21.3225 2.24996 19.875C2.24996 18.4275 3.25927 17.25 4.49996 17.25C5.74065 17.25 6.74996 18.4275 6.74996 19.875C6.74996 21.3225 5.74065 22.5 4.49996 22.5ZM8.24996 21.75C7.86346 21.7487 7.48287 21.655 7.13996 21.4767C7.37869 20.9766 7.50173 20.4292 7.49996 19.875C7.49996 18.1604 6.35729 16.7414 4.88377 16.5286C4.95587 15.0661 5.48129 13.7292 6.32499 12.8782C6.95135 13.0458 7.59734 13.1288 8.24574 13.125C8.89633 13.1289 9.54449 13.0454 10.1728 12.8766C11.0192 13.7274 11.5446 15.059 11.6163 16.5287C10.1427 16.7413 8.99996 18.1603 8.99996 19.875C8.99819 20.4292 9.12123 20.9766 9.35996 21.4767C9.01705 21.655 8.63646 21.7487 8.24996 21.75ZM12 22.5C10.7593 22.5 9.74996 21.3225 9.74996 19.875C9.74996 18.4275 10.7593 17.25 12 17.25C13.2406 17.25 14.25 18.4275 14.25 19.875C14.25 21.3225 13.2406 22.5 12 22.5ZM15 19.875H16.5C16.5994 19.875 16.6948 19.8355 16.7651 19.7652C16.8354 19.6948 16.875 19.5995 16.875 19.5V17.25C16.875 17.1505 16.8354 17.0552 16.7651 16.9848C16.6948 16.9145 16.5994 16.875 16.5 16.875H15.9917C16.0604 16.6816 16.1022 16.4796 16.1157 16.2747C16.1169 16.2578 16.1169 16.2408 16.1157 16.2239L16.1088 16.125H17.625V20.625H14.9243C14.9745 20.3782 14.9999 20.1269 15 19.875ZM22.875 20.625H18.375V16.125H22.875V20.625Z" />
<path d="M19.5 19.8751H21.75C21.8139 19.8751 21.8768 19.8588 21.9326 19.8276C21.9884 19.7965 22.0354 19.7516 22.069 19.6972C22.1026 19.6429 22.1217 19.5808 22.1246 19.5169C22.1275 19.4531 22.114 19.3895 22.0854 19.3324L20.9604 17.0824C20.9292 17.0201 20.8814 16.9677 20.8221 16.9311C20.7629 16.8945 20.6946 16.8751 20.625 16.8751C20.5554 16.8751 20.4871 16.8945 20.4279 16.9311C20.3686 16.9677 20.3207 17.0201 20.2896 17.0824L19.1646 19.3324C19.136 19.3895 19.1225 19.4531 19.1254 19.5169C19.1282 19.5808 19.1474 19.6429 19.181 19.6972C19.2146 19.7516 19.2615 19.7965 19.3174 19.8276C19.3732 19.8588 19.4361 19.8751 19.5 19.8751ZM20.625 18.0886L21.1432 19.1251H20.1067L20.625 18.0886Z" />
</g>
<defs>
<clipPath id="clip0_360_5002">
<rect width="24" height="24" />
</clipPath>
</defs>
</svg>
