<?xml version="1.0" encoding="utf-8"?><svg style="position: absolute; width: 0; height: 0;" xmlns="http://www.w3.org/2000/svg" xmlns:xlink="http://www.w3.org/1999/xlink"><symbol viewBox="0 0 11 7" id="arrow"><path d="M5.802 6.344l5.074-5.087a.426.426 0 00-.604-.603L5.5 5.44.728.654a.426.426 0 10-.603.603l5.073 5.087a.426.426 0 00.604 0z"/></symbol><symbol viewBox="0 0 24 22" id="azs"><path d="M23.492 20.755h-8.427V12.71h.82c.743 0 1.347.608 1.342 1.352v1.403a2.663 2.663 0 002.665 2.665 2.663 2.663 0 002.665-2.665V7.51c0-.824-.307-1.619-.87-2.227L17.755.803 17 1.466l3.047 3.475a2.021 2.021 0 00-1.66 2.328 2.02 2.02 0 003.163 1.317v6.88c0 .914-.744 1.659-1.66 1.659a1.66 1.66 0 01-1.658-1.66v-1.393a2.357 2.357 0 00-2.344-2.368h-.825V2.336c0-1.146-.925-2.096-2.07-2.096H3.65c-1.147 0-2.062.955-2.062 2.096v18.419H.503a.504.504 0 00-.503.503c0 .276.226.503.503.503h22.994a.504.504 0 00.503-.503.505.505 0 00-.508-.503zM20.385 7.948a1.016 1.016 0 110-2.032 1.016 1.016 0 010 2.032zm-6.326 12.807H2.595V2.336c0-.593.462-1.09 1.056-1.09h9.342c.593 0 1.066.502 1.066 1.09v18.419z"/></symbol><symbol viewBox="0 0 45 45" id="brickwall2"><g clip-path="url(#cclip0_360_6759)"><path d="M.75 45.087h36a.75.75 0 00.75-.75v-6.75h5.25a.75.75 0 00.75-.75v-7.5a.75.75 0 00-.75-.75H37.5v-6.75a.75.75 0 00-.75-.75h-1.376a1.735 1.735 0 00-.307-1.404l-3.389-4.518 1.565-1.174a2.593 2.593 0 001.035-2.222l-.076-1.35c-.02-.367.144-.719.437-.939l1.565-1.173.658.877a.75.75 0 001.05.15L44.1 4.692a2.25 2.25 0 00.45-3.15l-.417-.556a2.252 2.252 0 00-3.15-.449L34.796 5.18a.75.75 0 00-.15 1.05l.658.878-1.565 1.174a2.591 2.591 0 00-1.034 2.221l.075 1.35c.02.367-.143.72-.437.94l-1.564 1.173-3.39-4.517a1.74 1.74 0 00-1.526-.702 1.664 1.664 0 00-1.346.874l-6.162 11.467H.75a.75.75 0 00-.75.75v7.5c0 .414.336.75.75.75H6v6H.75a.75.75 0 00-.75.75v7.5c0 .414.336.75.75.75zm41.133-43.35a.75.75 0 011.05.15l.417.556a.75.75 0 01-.15 1.05l-5.588 4.192-1.317-1.756 5.588-4.192zM13.5 37.587H24v6H13.5v-6zm6-7.5H30v6H19.5v-6zm16.5 13.5H25.5v-6H36v6zm6-7.5H31.5v-6H42v6zm-6-7.5H25.5V24.22l7.677-1.633H36v6zM25.84 10.33a.157.157 0 01.136-.088h.015c.08.001.153.04.198.106l3.389 4.517-3.094 2.321a.75.75 0 00.9 1.2l3.094-2.32 3.39 4.517a.243.243 0 01.04.235.157.157 0 01-.122.106l-14.88 3.165a.244.244 0 01-.238-.102.24.24 0 01-.03-.257l7.201-13.4zm-8.371 14.557c.4.55 1.085.811 1.75.669L24 24.539v4.048H13.5v-6h4.048l-.232.433a1.724 1.724 0 00.153 1.867zm-15.969.7H3a.75.75 0 100-1.5H1.5v-1.5H12v6H1.5v-3zm6 4.5H18v6H7.5v-6zm-6 7.5H12v6H1.5v-6z"/><path d="M9.75 24.837a.75.75 0 00-.75-.75H6a.75.75 0 000 1.5h3a.75.75 0 00.75-.75z"/></g><defs><clipPath id="cclip0_360_6759"><path fill="#fff" d="M0 0h45v45H0z"/></clipPath></defs></symbol><symbol viewBox="0 0 45 45" id="building1"><g clip-path="url(#dclip0_360_6570)"><path d="M44.25 43.5h-4.5V18.75A.75.75 0 0039 18H28.5V.75a.75.75 0 00-.75-.75H8.25a.75.75 0 00-.75.75V43.5H.75a.75.75 0 000 1.5h43.5a.75.75 0 000-1.5zm-28.5 0h-3v-6.75a.75.75 0 01.75-.75H15a.75.75 0 01.75.75v6.75zm3-24.75V43.5h-1.5v-6.75A2.25 2.25 0 0015 34.5h-1.5a2.25 2.25 0 00-2.25 2.25v6.75H9v-42h18V18h-7.5a.75.75 0 00-.75.75zm19.5 24.75h-18v-24h18v24z"/><path d="M24 10.5h-4.5a.75.75 0 00-.75.75v4.5c0 .414.336.75.75.75H24a.75.75 0 00.75-.75v-4.5a.75.75 0 00-.75-.75zm-.75 4.5h-3v-3h3v3zM24 3h-4.5a.75.75 0 00-.75.75v4.5c0 .414.336.75.75.75H24a.75.75 0 00.75-.75v-4.5A.75.75 0 0024 3zm-.75 4.5h-3v-3h3v3zm-6.75 3H12a.75.75 0 00-.75.75v4.5c0 .414.336.75.75.75h4.5a.75.75 0 00.75-.75v-4.5a.75.75 0 00-.75-.75zm-.75 4.5h-3v-3h3v3zm.75-12H12a.75.75 0 00-.75.75v4.5c0 .414.336.75.75.75h4.5a.75.75 0 00.75-.75v-4.5A.75.75 0 0016.5 3zm-.75 4.5h-3v-3h3v3zM16.5 18H12a.75.75 0 00-.75.75v4.5c0 .414.336.75.75.75h4.5a.75.75 0 00.75-.75v-4.5a.75.75 0 00-.75-.75zm-.75 4.5h-3v-3h3v3zm.75 3H12a.75.75 0 00-.75.75v4.5c0 .414.336.75.75.75h4.5a.75.75 0 00.75-.75v-4.5a.75.75 0 00-.75-.75zm-.75 4.5h-3v-3h3v3zm15 4.5h4.5a.75.75 0 00.75-.75v-4.5a.75.75 0 00-.75-.75h-4.5a.75.75 0 00-.75.75v4.5c0 .414.336.75.75.75zm.75-4.5h3v3h-3v-3zm-.75-3h4.5a.75.75 0 00.75-.75v-4.5a.75.75 0 00-.75-.75h-4.5a.75.75 0 00-.75.75v4.5c0 .414.336.75.75.75zm.75-4.5h3v3h-3v-3zM30.75 42h4.5a.75.75 0 00.75-.75v-4.5a.75.75 0 00-.75-.75h-4.5a.75.75 0 00-.75.75v4.5c0 .414.336.75.75.75zm.75-4.5h3v3h-3v-3zm-8.25-3h4.5a.75.75 0 00.75-.75v-4.5a.75.75 0 00-.75-.75h-4.5a.75.75 0 00-.75.75v4.5c0 .414.336.75.75.75zM24 30h3v3h-3v-3zm-.75-3h4.5a.75.75 0 00.75-.75v-4.5a.75.75 0 00-.75-.75h-4.5a.75.75 0 00-.75.75v4.5c0 .414.336.75.75.75zm.75-4.5h3v3h-3v-3zM23.25 42h4.5a.75.75 0 00.75-.75v-4.5a.75.75 0 00-.75-.75h-4.5a.75.75 0 00-.75.75v4.5c0 .414.336.75.75.75zm.75-4.5h3v3h-3v-3z"/></g><defs><clipPath id="dclip0_360_6570"><path fill="#fff" d="M0 0h45v45H0z"/></clipPath></defs></symbol><symbol viewBox="0 0 24 22" id="cart"><path d="M23.297 7.484h-2.475L15.408.717a.703.703 0 10-1.098.879l4.711 5.888H4.98l4.71-5.888A.703.703 0 008.593.717L3.178 7.484H.703A.703.703 0 000 8.187V11c0 .388.315.703.703.703h.876l2.667 9.334c.086.302.362.51.676.51h14.156c.314 0 .59-.208.676-.51l2.667-9.334h.876A.703.703 0 0024 11V8.187a.703.703 0 00-.703-.703zm-4.75 12.657H5.453l-2.41-8.438h17.916l-2.41 8.438zm4.047-9.844H1.406V8.89h21.188v1.406z"/></symbol><symbol viewBox="0 0 45 45" id="key"><path d="M29.042 43.784a.608.608 0 01-.444-.192l-2.919-3.113a.608.608 0 01-.164-.416v-1.476a.607.607 0 01.213-.463l1.034-.883-.951-1.01a.608.608 0 01-.013-.82l1.001-1.132-.844-.909a.608.608 0 01-.017-.81l.902-1.051-1.105-.913a.61.61 0 01-.221-.47v-3.653a7.629 7.629 0 116.7.106v13.337a.608.608 0 01-.13.376l-2.564 3.26a.607.607 0 01-.454.232h-.024zm-2.31-3.962l2.27 2.421L31 39.706V26.181a.609.609 0 01.38-.564 6.423 6.423 0 10-5.011-.085.608.608 0 01.365.556v3.754l1.36 1.123a.607.607 0 01.074.865l-.951 1.11.85.915a.608.608 0 01.011.817l-.999 1.13 1.01 1.07a.608.608 0 01-.05.88l-1.306 1.116-.002.954z"/><path d="M31.604 26.785a.608.608 0 01-.608-.604v-.007a.608.608 0 11.608.611zm-2.634-5.982a2.973 2.973 0 110-5.946 2.973 2.973 0 010 5.946zm0-4.731a1.757 1.757 0 100 3.515 1.757 1.757 0 000-3.515z"/><path d="M9.907 39.983a.608.608 0 01-.595-.48l-.904-4.172a.608.608 0 01.074-.443l.765-1.267a.607.607 0 01.422-.286l1.338-.22-.291-1.362a.608.608 0 01.411-.707l1.438-.453-.251-1.216a.608.608 0 01.405-.701l1.311-.432-.474-1.354a.607.607 0 01.052-.514l1.88-3.132A7.633 7.633 0 0125.905 12.66l.087.053c.075.046.147.09.22.139a.61.61 0 01-.215 1.103.608.608 0 01-.457-.09 4.468 4.468 0 00-.183-.111l-.089-.055a6.417 6.417 0 00-8.562 9.183.607.607 0 01.024.662l-1.93 3.213.586 1.669a.607.607 0 01-.384.779l-1.385.456.253 1.222a.608.608 0 01-.412.703l-1.436.452.31 1.444a.609.609 0 01-.496.73l-1.693.28-.495.819.703 3.243 3.02-1.143 6.968-11.59a.604.604 0 01.615-.287 6.352 6.352 0 003.831-.585.61.61 0 01.882.502.61.61 0 01-.34.587 7.558 7.558 0 01-4.15.75l-6.871 11.433a.608.608 0 01-.304.255l-3.878 1.468a.595.595 0 01-.217.04z"/><path d="M20.863 26.742a.608.608 0 01-.519-.921l.005-.007a.609.609 0 11.815.849.616.616 0 01-.301.079zm10.379-8.96a.608.608 0 01-.287-1.148 7.76 7.76 0 10-11.685-3.858.607.607 0 11-1.146.406 8.983 8.983 0 1113.457 4.5c-.1.066-.218.1-.338.1z"/></symbol><symbol viewBox="0 0 21 29" id="loc"><path d="M10.499 0C5.169 0 .832 4.337.832 9.667c0 1.6.4 3.186 1.16 4.594L9.97 28.689a.603.603 0 001.057 0l7.98-14.433a9.683 9.683 0 001.158-4.59C20.165 4.337 15.83 0 10.5 0zm0 14.5a4.839 4.839 0 01-4.834-4.833A4.839 4.839 0 0110.5 4.833a4.839 4.839 0 014.833 4.834A4.839 4.839 0 0110.5 14.5z"/></symbol><symbol viewBox="0 0 45 45" id="office"><path d="M31.066 38.969a.608.608 0 01-.608-.608V6.057l-7.707-3.234-6.472 2.547v32.99a.609.609 0 01-1.216 0V4.956a.608.608 0 01.385-.566l7.087-2.79a.608.608 0 01.458.004l8.308 3.487a.608.608 0 01.373.56V38.36a.609.609 0 01-.608.608z"/><path d="M22.756 38.969a.609.609 0 01-.608-.608V2.167a.608.608 0 011.217 0V38.36a.608.608 0 01-.608.608zm18.127 0a.609.609 0 01-.608-.608V19.248l-5.946-3.46h-3.264a.609.609 0 010-1.216h3.428c.107 0 .212.029.304.083l6.39 3.718a.608.608 0 01.305.525v19.46a.609.609 0 01-.609.61z"/><path d="M34.495 38.969a.608.608 0 01-.608-.608V15.18a.608.608 0 011.216 0v23.18a.608.608 0 01-.608.608zm-31.317 0a.608.608 0 01-.608-.608V19.42a.608.608 0 01.608-.608H15.67a.608.608 0 010 1.216H3.787V38.36a.608.608 0 01-.609.608z"/><path d="M6.53 22.365H5.236a.608.608 0 110-1.216h1.292a.608.608 0 010 1.216zm3.543 0H8.78a.608.608 0 110-1.216h1.293a.608.608 0 010 1.216zm3.542 0h-1.292a.608.608 0 110-1.216h1.292a.608.608 0 010 1.216zM6.53 25.219H5.236a.608.608 0 110-1.216h1.292a.608.608 0 010 1.216zm3.543 0H8.78a.608.608 0 110-1.216h1.293a.608.608 0 010 1.216zm3.542 0h-1.292a.608.608 0 110-1.216h1.292a.608.608 0 010 1.216zM6.53 28.072H5.236a.608.608 0 010-1.216h1.292a.608.608 0 010 1.216zm3.543 0H8.78a.608.608 0 010-1.216h1.293a.608.608 0 010 1.216zm3.542 0h-1.292a.608.608 0 010-1.216h1.292a.608.608 0 010 1.216zM6.53 30.926H5.236a.608.608 0 110-1.216h1.292a.608.608 0 010 1.216zm3.543 0H8.78a.608.608 0 110-1.216h1.293a.608.608 0 010 1.216zm3.542 0h-1.292a.608.608 0 110-1.216h1.292a.608.608 0 010 1.216zM6.53 33.78H5.236a.608.608 0 010-1.216h1.292a.608.608 0 010 1.216zm3.543 0H8.78a.608.608 0 010-1.216h1.293a.608.608 0 010 1.216zm3.542 0h-1.292a.608.608 0 010-1.216h1.292a.608.608 0 010 1.216zM6.53 36.634H5.236a.608.608 0 110-1.217h1.292a.608.608 0 010 1.217zm3.543 0H8.78a.608.608 0 110-1.217h1.293a.608.608 0 010 1.217zm3.542 0h-1.292a.608.608 0 110-1.217h1.292a.608.608 0 010 1.217zM20.616 8.12a.608.608 0 01-.608-.609V6.364a.608.608 0 011.216 0V7.51a.608.608 0 01-.608.608zm-2.773.707a.608.608 0 01-.609-.608V7.07a.608.608 0 111.217 0v1.15a.608.608 0 01-.608.608zm2.773 3.867a.608.608 0 01-.608-.608v-1.148a.608.608 0 011.216 0v1.148a.608.608 0 01-.608.608zm-2.773.706a.608.608 0 01-.609-.607v-1.148a.608.608 0 111.217 0v1.148a.608.608 0 01-.608.608zm2.773 3.87a.608.608 0 01-.608-.608v-1.15a.608.608 0 011.216 0v1.15a.608.608 0 01-.608.608zm-2.773.705a.608.608 0 01-.609-.608v-1.148a.608.608 0 111.217 0v1.148a.608.608 0 01-.608.608zm2.773 3.866a.608.608 0 01-.608-.608v-1.147a.609.609 0 011.216 0v1.147a.608.608 0 01-.608.608zm-2.773.708a.608.608 0 01-.609-.608v-1.148a.608.608 0 111.217 0v1.148a.608.608 0 01-.608.608zm2.773 3.867a.608.608 0 01-.608-.608V24.66a.608.608 0 011.216 0v1.148a.608.608 0 01-.608.608zm-2.773.706a.608.608 0 01-.609-.608v-1.147a.608.608 0 111.217 0v1.146a.608.608 0 01-.608.609zm2.773 3.868a.608.608 0 01-.608-.608v-1.148a.608.608 0 011.216 0v1.148a.608.608 0 01-.608.608zm-2.773.707a.608.608 0 01-.609-.608V29.94a.608.608 0 111.217 0v1.148a.608.608 0 01-.608.608zm2.773 3.866a.608.608 0 01-.608-.608v-1.144a.608.608 0 011.216 0v1.147a.608.608 0 01-.608.605zm-2.773.708a.608.608 0 01-.609-.608v-1.148a.608.608 0 111.217 0v1.148a.608.608 0 01-.608.608zM24.811 7.54a.608.608 0 01-.608-.608V5.786a.608.608 0 011.216 0v1.146a.608.608 0 01-.608.609zm2.055.776a.608.608 0 01-.608-.608V6.56a.608.608 0 011.216 0v1.147a.608.608 0 01-.608.608zm2.051.774a.608.608 0 01-.608-.608V7.336a.608.608 0 011.216 0v1.147a.608.608 0 01-.608.608zm-4.106 3.011a.608.608 0 01-.608-.608v-1.15a.608.608 0 011.216 0v1.15a.608.608 0 01-.608.608zm2.055.773a.608.608 0 01-.608-.609V11.12a.608.608 0 011.216 0v1.146a.608.608 0 01-.608.609zm2.051.774a.608.608 0 01-.608-.608v-1.147a.608.608 0 011.216 0v1.148a.608.608 0 01-.608.607zm-4.106 3.009a.609.609 0 01-.608-.608V14.9a.609.609 0 011.216 0v1.147a.608.608 0 01-.608.611zm2.055.775a.608.608 0 01-.608-.608v-1.148a.608.608 0 011.216 0v1.148a.608.608 0 01-.608.608zm2.051.774a.608.608 0 01-.608-.608v-1.147a.608.608 0 011.216 0V17.6a.608.608 0 01-.608.607zm-4.106 3.009a.609.609 0 01-.608-.608v-1.148a.608.608 0 011.216 0v1.148a.608.608 0 01-.608.608zm2.055.775a.608.608 0 01-.608-.608v-1.148a.608.608 0 011.216 0v1.148a.608.608 0 01-.608.608zm2.051.775a.608.608 0 01-.608-.609V21.01a.608.608 0 011.216 0v1.147a.608.608 0 01-.608.609zm-4.106 3.008a.609.609 0 01-.608-.608V24.02a.608.608 0 011.216 0v1.148a.608.608 0 01-.608.605zm2.055.774a.608.608 0 01-.608-.608v-1.147a.609.609 0 011.216 0v1.147a.608.608 0 01-.608.608zm2.051.775a.608.608 0 01-.608-.608v-1.147a.608.608 0 011.216 0v1.147a.609.609 0 01-.608.608zm-4.106 3.008a.608.608 0 01-.608-.607v-1.148a.608.608 0 011.216 0v1.148a.608.608 0 01-.608.608zm2.055.775a.608.608 0 01-.608-.608V29.35a.609.609 0 011.216 0v1.147a.608.608 0 01-.608.608zm2.051.775a.608.608 0 01-.608-.608v-1.147a.608.608 0 011.216 0v1.147a.609.609 0 01-.608.608zm-4.106 3.008a.609.609 0 01-.608-.608v-1.147a.608.608 0 011.216 0v1.147a.608.608 0 01-.608.608zm2.055.775a.608.608 0 01-.608-.608v-1.148a.608.608 0 011.216 0v1.148a.608.608 0 01-.608.608zm2.051.775a.608.608 0 01-.608-.608v-1.148a.608.608 0 011.216 0v1.148a.608.608 0 01-.608.608zm7.691-15.975a.608.608 0 01-.608-.608v-.615a.609.609 0 011.216 0v.615a.608.608 0 01-.608.608zm2.051 1.287a.608.608 0 01-.608-.607v-.615a.608.608 0 111.216 0v.615a.608.608 0 01-.608.608zm-2.051 1.716a.608.608 0 01-.608-.608v-.615a.608.608 0 011.216 0v.615a.608.608 0 01-.608.608zm2.051 1.288a.608.608 0 01-.608-.609v-.611a.608.608 0 111.216 0v.615a.608.608 0 01-.608.605zm-2.051 1.716a.608.608 0 01-.608-.61v-.615a.608.608 0 011.216 0v.615a.608.608 0 01-.608.608zm2.051 1.287a.608.608 0 01-.608-.608v-.615a.608.608 0 111.216 0v.615a.608.608 0 01-.608.608zm-2.051 1.716a.608.608 0 01-.608-.609v-.614a.608.608 0 011.216 0v.614a.608.608 0 01-.608.608zm2.051 1.287a.608.608 0 01-.608-.608v-.615a.608.608 0 111.216 0v.615a.608.608 0 01-.608.608zm-2.051 1.713a.608.608 0 01-.608-.608v-.612a.608.608 0 011.216 0v.612a.608.608 0 01-.608.608zm2.051 1.29a.608.608 0 01-.608-.608v-.614a.608.608 0 111.216 0v.614a.608.608 0 01-.608.608zm-2.051 1.716A.608.608 0 0136 34.87v-.615a.609.609 0 011.216 0v.615a.608.608 0 01-.608.608zm2.051 1.287a.608.608 0 01-.608-.608v-.615a.608.608 0 111.216 0v.615a.608.608 0 01-.608.608zm4.051 2.193H1.358a.608.608 0 010-1.216H42.71a.609.609 0 010 1.216z"/></symbol><symbol viewBox="0 0 45 45" id="parking"><g clip-path="url(#iclip0_360_6815)"><path d="M24.745 10.919h-8.046V34.08h2.637v-7.34h5.409c4.287 0 7.774-3.488 7.774-7.775v-.27c0-4.287-3.487-7.775-7.774-7.775zm5.138 8.045a5.144 5.144 0 01-5.138 5.138h-5.41V13.555h5.41a5.144 5.144 0 015.138 5.138v.271z"/><path d="M38.41 6.59C34.16 2.34 28.51 0 22.5 0S10.84 2.34 6.59 6.59 0 16.49 0 22.5s2.34 11.66 6.59 15.91S16.49 45 22.5 45s11.66-2.34 15.91-6.59S45 28.51 45 22.5s-2.34-11.66-6.59-15.91zm-1.864 29.955A19.734 19.734 0 0122.5 42.363a19.733 19.733 0 01-14.045-5.818A19.733 19.733 0 012.637 22.5 19.734 19.734 0 018.455 8.454 19.734 19.734 0 0122.5 2.637a19.734 19.734 0 0114.045 5.817A19.734 19.734 0 0142.363 22.5a19.734 19.734 0 01-5.818 14.045z"/></g><defs><clipPath id="iclip0_360_6815"><path fill="#fff" d="M0 0h45v45H0z"/></clipPath></defs></symbol><symbol viewBox="0 0 24 24" id="phone"><g clip-path="url(#jclip0_360_5380)"><path d="M18.966 14.867c-.492-.512-1.084-.785-1.712-.785-.623 0-1.221.268-1.733.78l-1.6 1.596c-.132-.071-.264-.137-.39-.203a6.43 6.43 0 01-.502-.268c-1.5-.953-2.862-2.194-4.169-3.8-.633-.8-1.058-1.473-1.367-2.157.415-.38.8-.775 1.175-1.155.142-.142.284-.289.425-.43 1.064-1.064 1.064-2.442 0-3.506L7.71 3.556a19.364 19.364 0 01-.47-.481 23.922 23.922 0 00-.953-.942c-.491-.486-1.079-.745-1.697-.745-.618 0-1.215.259-1.722.745l-.01.01L1.136 3.88a3.706 3.706 0 00-1.1 2.356c-.121 1.479.315 2.857.649 3.758.82 2.214 2.046 4.265 3.875 6.464 2.218 2.649 4.888 4.74 7.937 6.215 1.165.552 2.72 1.205 4.458 1.317.106.005.218.01.319.01 1.17 0 2.153-.42 2.923-1.256.005-.01.015-.015.02-.026.263-.319.567-.607.886-.916.218-.208.441-.426.659-.654.501-.522.765-1.13.765-1.752 0-.629-.269-1.231-.78-1.738l-2.781-2.79zm1.813 5.334c-.005 0-.005.005 0 0-.197.213-.4.405-.618.618-.33.314-.663.643-.978 1.013-.511.547-1.114.805-1.904.805-.076 0-.157 0-.233-.005-1.505-.096-2.902-.684-3.951-1.185-2.867-1.388-5.385-3.358-7.477-5.855-1.727-2.082-2.882-4.007-3.647-6.074-.47-1.261-.643-2.244-.567-3.17a2.32 2.32 0 01.7-1.505L3.83 3.115c.249-.233.512-.36.77-.36.32 0 .578.193.74.355l.015.016c.31.288.603.587.912.906.157.162.319.324.481.492l1.383 1.382c.537.537.537 1.034 0 1.57-.147.148-.289.295-.436.436-.425.436-.83.841-1.271 1.236-.01.01-.02.016-.025.026-.436.435-.355.86-.264 1.15l.015.045c.36.871.867 1.692 1.636 2.67l.006.005c1.398 1.722 2.872 3.064 4.498 4.092.207.132.42.239.623.34.182.091.354.177.501.268.02.01.04.026.06.036.173.086.335.126.502.126.42 0 .684-.263.77-.35l1.733-1.732c.172-.172.445-.38.765-.38.314 0 .572.198.729.37l.01.01 2.791 2.792c.522.516.522 1.048.005 1.585zM12.97 5.71a6.423 6.423 0 013.494 1.812 6.457 6.457 0 011.814 3.496.68.68 0 00.673.567c.04 0 .076-.005.117-.01a.685.685 0 00.562-.79 7.813 7.813 0 00-2.193-4.23 7.813 7.813 0 00-4.23-2.193.687.687 0 00-.79.557c-.066.37.177.73.552.79zm11.002 4.877a12.853 12.853 0 00-3.611-6.965A12.853 12.853 0 0013.396.011a.681.681 0 00-.785.557.687.687 0 00.562.79c2.36.4 4.513 1.52 6.225 3.227a11.475 11.475 0 013.227 6.225.68.68 0 00.674.567c.04 0 .076-.005.116-.01a.671.671 0 00.557-.78z"/></g><defs><clipPath id="jclip0_360_5380"><path fill="#fff" d="M0 0h24v24H0z"/></clipPath></defs></symbol><symbol viewBox="0 0 24 24" id="plus"><path d="M23.297 7.531h-6.828V.703A.703.703 0 0015.766 0H8.234a.703.703 0 00-.703.703v6.828H.703A.703.703 0 000 8.234v7.532c0 .388.315.703.703.703h6.828v6.828c0 .388.315.703.703.703h7.532a.703.703 0 00.703-.703v-6.828h6.828a.703.703 0 00.703-.703V8.234a.703.703 0 00-.703-.703zm-.703 7.532h-6.828a.703.703 0 00-.704.703v6.828H8.939v-6.828a.703.703 0 00-.704-.704H1.406V8.939h6.828a.703.703 0 00.704-.704V1.406h6.124v6.828c0 .389.315.704.704.704h6.828v6.124z"/></symbol><symbol viewBox="0 0 45 45" id="puttyKnife"><path d="M.703 39.375h43.594a.702.702 0 00.703-.703V24.61a2.818 2.818 0 00-2.815-2.814h-7.863a2.105 2.105 0 00-1.978-1.402h-2.799l-.014-.002a2.112 2.112 0 01-2.11-2.11v-7.736A4.928 4.928 0 0022.5 5.625a4.928 4.928 0 00-4.922 4.922v7.736c0 1.163-.946 2.11-2.11 2.11l-.013.002h-2.799c-.914 0-1.685.588-1.978 1.402H2.815c-.007 0-.012.003-.019.003A2.815 2.815 0 000 24.611v14.061c0 .389.314.703.703.703zm42.89-3.516H1.407v-5.626h42.188v5.626zM1.407 37.97v-.703h42.188v.703H1.406zm17.578-19.686v-7.736A3.52 3.52 0 0122.5 7.03a3.52 3.52 0 013.516 3.516v7.736a3.518 3.518 0 003.488 3.513c.01 0 .017.006.027.006h2.813c.388 0 .703.315.703.703v3.513H11.953v-3.513c0-.388.315-.703.703-.703h2.813c.01 0 .017-.005.027-.006a3.518 3.518 0 003.488-3.513zM2.812 23.205l.011-.002h7.724v3.518c0 .389.314.703.703.703h22.5a.702.702 0 00.703-.703v-3.518h7.732a1.41 1.41 0 011.409 1.409v4.215H1.406V24.61c0-.775.631-1.406 1.407-1.406z"/><path d="M22.5 12.656c1.163 0 2.11-.947 2.11-2.11 0-1.163-.947-2.11-2.11-2.11-1.163 0-2.11.947-2.11 2.11 0 1.163.947 2.11 2.11 2.11zm0-2.813a.703.703 0 110 1.407.703.703 0 010-1.407z"/></symbol><symbol viewBox="0 0 45 45" id="slider"><path d="M42.89 35.86h-2.366l-11.65-24.671.514-1.797a3.515 3.515 0 00-2.618-4.398l-.828-.184A3.52 3.52 0 0021.8 7.276l-1.738 6.083H18.65l-1.025-2.17.514-1.797a3.515 3.515 0 00-2.618-4.398l-.85-.189a3.526 3.526 0 00-4.135 2.436L1.433 39.183a.703.703 0 101.353.384l1.051-3.708h9.796l-.95 3.323a.703.703 0 001.353.386l4.522-15.828 7.525 15.935a.703.703 0 00.636.403h16.172a.703.703 0 00.703-.703v-2.813a.703.703 0 00-.703-.703zM23.153 7.662a2.11 2.11 0 012.485-1.48l.828.184a2.11 2.11 0 011.57 2.638l-.44 1.542h-5.267l.824-2.884zm-11.268-.024a2.116 2.116 0 012.48-1.461l.85.189a2.11 2.11 0 011.571 2.639l-.44 1.54h-5.32l.86-2.907zM6.628 26.016l.798-2.813h9.823l-.804 2.813H6.628zm9.416 1.406l-.804 2.812H5.432l.797-2.812h9.815zm-8.22-5.625l.798-2.813h7.69l1.328 2.813H7.824zm1.197-4.219l.797-2.812h4.502l1.329 2.812H9.02zM4.236 34.453l.797-2.812h9.805l-.803 2.812H4.236zm26.702 4.219h-3.773l-11.763-24.91a.703.703 0 00-.636-.403h-4.55l.4-1.406h5.814l11.763 24.91a.703.703 0 00.635.403h2.11v1.406zm1.406 0v-2.11a.703.703 0 00-.703-.703h-2.367l-9.961-21.093h6.257l11.29 23.906h-4.516zm9.844 0h-3.773l-11.763-24.91a.703.703 0 00-.636-.403h-4.492l.402-1.406h5.754l11.763 24.91a.703.703 0 00.635.403h2.11v1.406z"/></symbol><symbol viewBox="0 0 45 45" id="star"><path d="M10.072 44.09a2.393 2.393 0 01-2.33-2.925l2.894-12.752-9.818-8.61a2.39 2.39 0 01-.7-2.541 2.391 2.391 0 012.056-1.645l12.99-1.18L20.3 2.42a2.391 2.391 0 014.4-.002l5.135 12.02 12.988 1.18a2.388 2.388 0 012.06 1.645 2.39 2.39 0 01-.7 2.54l-9.818 8.609 2.895 12.752a2.39 2.39 0 01-3.559 2.584L22.5 37.053 11.298 43.75c-.378.224-.8.34-1.226.34zM22.5 34.17c.426 0 .847.113 1.226.338l10.572 6.323-2.733-12.036a2.391 2.391 0 01.758-2.33l9.27-8.13L29.33 17.22a2.389 2.389 0 01-1.988-1.45L22.5 4.43l-4.847 11.344a2.382 2.382 0 01-1.982 1.444L3.404 18.33l9.27 8.13c.664.581.955 1.474.758 2.332l-2.73 12.036 10.571-6.32c.38-.226.801-.34 1.227-.34zm-7.435-19.5l-.002.004.002-.004zm14.866-.005l.002.004-.002-.004z"/></symbol><symbol viewBox="0 0 24 24" id="toys"><g clip-path="url(#oclip0_360_5002)"><path d="M8.246 11.25c1.654 0 3-1.094 3-2.438a.375.375 0 10-.75 0c0 .835-.812 1.53-1.875 1.664v-1.19a.848.848 0 00.114-.068l.636-.455a.908.908 0 00.375-.74c0-.495-.387-.898-.863-.898H7.61c-.477 0-.864.403-.864.898a.908.908 0 00.375.74l.636.455a.844.844 0 00.114.068v1.19c-1.063-.134-1.875-.829-1.875-1.664a.375.375 0 10-.75 0c0 1.345 1.346 2.438 3 2.438zm-.69-3.097a.16.16 0 01-.06-.13c0-.08.052-.148.114-.148h1.273c.061 0 .113.068.113.148a.16.16 0 01-.06.13l-.637.454a.087.087 0 01-.106 0l-.636-.454zm2.94-1.028a.375.375 0 100-.75.375.375 0 000 .75zm-4.5 0a.375.375 0 100-.75.375.375 0 000 .75zM18 14.625a1.5 1.5 0 100-3 1.5 1.5 0 000 3zm0-2.25a.75.75 0 110 1.5.75.75 0 010-1.5z"/><path d="M23.25 15.375H21V10.5a.373.373 0 00-.068-.215l-2.625-3.75a.376.376 0 00-.614 0l-2.625 3.75A.372.372 0 0015 10.5v2.347c-.514-.69-1.199-1.263-2.045-1.705.836-.982 1.29-2.258 1.29-3.642a5.923 5.923 0 00-.274-1.803 2.625 2.625 0 10-3.568-3.506 7.138 7.138 0 00-2.157-.316 7.136 7.136 0 00-2.157.316 2.625 2.625 0 10-3.568 3.506A5.924 5.924 0 002.246 7.5c0 1.384.455 2.66 1.29 3.642-1.826.953-2.902 2.517-3.123 4.553l-.001.014-.036.515a.36.36 0 000 .05 2.254 2.254 0 001.497 1.973 3.687 3.687 0 00-.373 1.628c0 1.86 1.346 3.375 3 3.375.89 0 1.691-.44 2.241-1.135a3.15 3.15 0 003.018 0c.55.696 1.35 1.135 2.241 1.135 1.175 0 2.194-.765 2.686-1.875h8.564a.375.375 0 00.375-.375v-5.25a.375.375 0 00-.375-.375zM18 7.404l1.905 2.721h-3.81L18 7.404zm-2.25 3.471h4.5v4.5h-4.215a6.11 6.11 0 00-.285-1.125v-3.375zm-1.125 7.369c.354-.127.67-.34.92-.619h.58v1.5h-1.2a3.616 3.616 0 00-.3-.881zm.707-2.475l.034.48a1.503 1.503 0 01-1.163 1.338c-.47-.572-1.114-.961-1.836-1.06-.068-1.526-.582-2.933-1.422-3.919a5.468 5.468 0 001.455-.905c1.718.822 2.73 2.223 2.932 4.066zM12.746 1.5a1.875 1.875 0 01.946 3.494 5.235 5.235 0 00-1.05-1.474 5.423 5.423 0 00-1.535-1.057 1.88 1.88 0 011.639-.963zM1.87 3.375a1.875 1.875 0 013.514-.912A5.423 5.423 0 003.85 3.52 5.233 5.233 0 002.8 4.994a1.88 1.88 0 01-.93-1.619zm2.505.68c.951-.935 2.29-1.43 3.87-1.43s2.918.495 3.87 1.43c.89.875 1.38 2.099 1.38 3.445 0 1.346-.49 2.57-1.38 3.445-.952.935-2.29 1.43-3.87 1.43s-2.919-.495-3.87-1.43c-.89-.875-1.38-2.099-1.38-3.445 0-1.346.49-2.57 1.38-3.445zM1.126 16.25l.034-.481c.202-1.843 1.214-3.244 2.931-4.067.437.379.93.685 1.463.91-.838.985-1.352 2.396-1.421 3.914-.723.1-1.367.49-1.838 1.063a1.503 1.503 0 01-1.17-1.34zM4.5 22.5c-1.24 0-2.25-1.177-2.25-2.625S3.26 17.25 4.5 17.25s2.25 1.177 2.25 2.625S5.74 22.5 4.5 22.5zm3.75-.75a2.424 2.424 0 01-1.11-.273 3.69 3.69 0 00.36-1.602c0-1.715-1.143-3.134-2.616-3.346.072-1.463.597-2.8 1.441-3.65.626.167 1.272.25 1.92.246a7.26 7.26 0 001.928-.248c.846.85 1.372 2.182 1.443 3.652C10.143 16.74 9 18.16 9 19.875a3.69 3.69 0 00.36 1.602 2.424 2.424 0 01-1.11.273zm3.75.75c-1.24 0-2.25-1.177-2.25-2.625S10.76 17.25 12 17.25s2.25 1.177 2.25 2.625S13.24 22.5 12 22.5zm3-2.625h1.5a.375.375 0 00.375-.375v-2.25a.375.375 0 00-.375-.375h-.508c.068-.193.11-.395.124-.6a.359.359 0 000-.051l-.007-.099h1.516v4.5h-2.7a3.77 3.77 0 00.075-.75zm7.875.75h-4.5v-4.5h4.5v4.5z"/><path d="M19.5 19.875h2.25a.374.374 0 00.335-.543l-1.125-2.25a.375.375 0 00-.67 0l-1.125 2.25a.374.374 0 00.335.543zm1.125-1.786l.518 1.036h-1.036l.518-1.036z"/></g><defs><clipPath id="oclip0_360_5002"><path d="M0 0h24v24H0z"/></clipPath></defs></symbol></svg>